<?xml version="1.0" encoding="UTF-8"?>
<svg xmlns="http://www.w3.org/2000/svg" xmlns:xlink="http://www.w3.org/1999/xlink" width="64px" height="64px" viewBox="0 0 64 64" version="1.1">
<g id="surface1">
<path style=" stroke:none;fill-rule:nonzero;fill:rgb(100%,100%,100%);fill-opacity:1;" d="M 27.980469 5.332031 C 26.988281 4.167969 26.0625 2.636719 24.542969 2.613281 C 22.894531 2.59375 21.605469 4.386719 21.769531 6.019531 C 22.230469 10.53125 30.957031 15.09375 31.925781 14.113281 C 32.40625 13.636719 30.582031 8.425781 27.980469 5.332031 Z M 27.980469 5.332031 "/>
<path style=" stroke:none;fill-rule:nonzero;fill:rgb(100%,100%,100%);fill-opacity:1;" d="M 37.21875 7.042969 C 38.011719 6.105469 38.761719 4.855469 39.988281 4.84375 C 41.324219 4.832031 42.363281 6.28125 42.230469 7.605469 C 41.855469 11.25 34.800781 14.9375 34.019531 14.144531 C 33.636719 13.761719 35.113281 9.550781 37.21875 7.042969 Z M 37.21875 7.042969 "/>
<path style="fill:none;stroke-width:11;stroke-linecap:round;stroke-linejoin:miter;stroke:rgb(100%,100%,100%);stroke-opacity:1;stroke-miterlimit:10;" d="M 308.776855 281.066895 L 691.223145 281.066895 " transform="matrix(0.064,0,0,0.064,0,0)"/>
<path style="fill:none;stroke-width:11;stroke-linecap:round;stroke-linejoin:miter;stroke:rgb(100%,100%,100%);stroke-opacity:1;stroke-miterlimit:10;" d="M 325.378418 342.773438 L 672.668457 342.773438 " transform="matrix(0.064,0,0,0.064,0,0)"/>
<path style="fill:none;stroke-width:11;stroke-linecap:round;stroke-linejoin:miter;stroke:rgb(100%,100%,100%);stroke-opacity:1;stroke-miterlimit:10;" d="M 343.261719 406.555176 L 657.531738 406.555176 " transform="matrix(0.064,0,0,0.064,0,0)"/>
<path style="fill:none;stroke-width:11;stroke-linecap:round;stroke-linejoin:miter;stroke:rgb(100%,100%,100%);stroke-opacity:1;stroke-miterlimit:10;" d="M 361.328125 468.078613 L 639.953613 468.078613 " transform="matrix(0.064,0,0,0.064,0,0)"/>
<path style="fill:none;stroke-width:11;stroke-linecap:round;stroke-linejoin:miter;stroke:rgb(100%,100%,100%);stroke-opacity:1;stroke-miterlimit:10;" d="M 376.464844 529.11377 L 621.887207 529.11377 " transform="matrix(0.064,0,0,0.064,0,0)"/>
<path style="fill:none;stroke-width:11;stroke-linecap:round;stroke-linejoin:miter;stroke:rgb(100%,100%,100%);stroke-opacity:1;stroke-miterlimit:10;" d="M 396.972656 590.148926 L 603.33252 590.148926 " transform="matrix(0.064,0,0,0.064,0,0)"/>
<path style="fill:none;stroke-width:11;stroke-linecap:round;stroke-linejoin:miter;stroke:rgb(100%,100%,100%);stroke-opacity:1;stroke-miterlimit:10;" d="M 412.780762 651.367188 L 585.754395 651.367188 " transform="matrix(0.064,0,0,0.064,0,0)"/>
<path style="fill:none;stroke-width:11;stroke-linecap:round;stroke-linejoin:miter;stroke:rgb(100%,100%,100%);stroke-opacity:1;stroke-miterlimit:10;" d="M 431.152344 713.562012 L 569.641113 713.562012 " transform="matrix(0.064,0,0,0.064,0,0)"/>
<path style="fill:none;stroke-width:11;stroke-linecap:round;stroke-linejoin:miter;stroke:rgb(100%,100%,100%);stroke-opacity:1;stroke-miterlimit:10;" d="M 448.059082 774.719238 L 551.574707 774.719238 " transform="matrix(0.064,0,0,0.064,0,0)"/>
<path style="fill:none;stroke-width:11;stroke-linecap:round;stroke-linejoin:miter;stroke:rgb(100%,100%,100%);stroke-opacity:1;stroke-miterlimit:10;" d="M 465.820312 835.754395 L 533.996582 835.754395 " transform="matrix(0.064,0,0,0.064,0,0)"/>
<path style="fill:none;stroke-width:11;stroke-linecap:round;stroke-linejoin:miter;stroke:rgb(100%,100%,100%);stroke-opacity:1;stroke-miterlimit:10;" d="M 482.23877 897.644043 L 517.578125 897.644043 " transform="matrix(0.064,0,0,0.064,0,0)"/>
<path style="fill:none;stroke-width:11;stroke-linecap:round;stroke-linejoin:miter;stroke:rgb(100%,100%,100%);stroke-opacity:1;stroke-miterlimit:10;" d="M 493.347168 959.16748 L 507.324219 959.16748 " transform="matrix(0.064,0,0,0.064,0,0)"/>
</g>
</svg>
