<svg xmlns="http://www.w3.org/2000/svg" xmlns:xlink="http://www.w3.org/1999/xlink" width="24px" height="24px" viewBox="0 0 24 24" version="1.1">
<g id="surface1">
<rect x="0" y="0" width="24" height="24" style="fill:none;fill-opacity:1;stroke:none;"/>
<path style=" stroke:none;fill-rule:nonzero;fill:rgb(0%,0%,0%);fill-opacity:1;" d="M 10.492188 2 C 10.121094 1.5625 9.773438 0.988281 9.203125 0.980469 C 8.585938 0.972656 8.101562 1.644531 8.164062 2.257812 C 8.335938 3.949219 11.609375 5.660156 11.972656 5.292969 C 12.152344 5.113281 11.46875 3.160156 10.492188 2 Z M 10.492188 2 "/>
<path style=" stroke:none;fill-rule:nonzero;fill:rgb(0%,0%,0%);fill-opacity:1;" d="M 13.957031 2.640625 C 14.253906 2.289062 14.535156 1.820312 14.996094 1.816406 C 15.496094 1.8125 15.886719 2.355469 15.835938 2.851562 C 15.695312 4.21875 13.050781 5.601562 12.757812 5.304688 C 12.613281 5.160156 13.167969 3.582031 13.957031 2.640625 Z M 13.957031 2.640625 "/>
<path style="fill:none;stroke-width:11;stroke-linecap:round;stroke-linejoin:miter;stroke:rgb(0%,0%,0%);stroke-opacity:1;stroke-miterlimit:10;" d="M 308.75651 281.08724 L 691.24349 281.08724 " transform="matrix(0.024,0,0,0.024,0,0)"/>
<path style="fill:none;stroke-width:11;stroke-linecap:round;stroke-linejoin:miter;stroke:rgb(0%,0%,0%);stroke-opacity:1;stroke-miterlimit:10;" d="M 325.358073 342.773438 L 672.688802 342.773438 " transform="matrix(0.024,0,0,0.024,0,0)"/>
<path style="fill:none;stroke-width:11;stroke-linecap:round;stroke-linejoin:miter;stroke:rgb(0%,0%,0%);stroke-opacity:1;stroke-miterlimit:10;" d="M 343.261719 406.575521 L 657.552083 406.575521 " transform="matrix(0.024,0,0,0.024,0,0)"/>
<path style="fill:none;stroke-width:11;stroke-linecap:round;stroke-linejoin:miter;stroke:rgb(0%,0%,0%);stroke-opacity:1;stroke-miterlimit:10;" d="M 361.328125 468.098958 L 639.973958 468.098958 " transform="matrix(0.024,0,0,0.024,0,0)"/>
<path style="fill:none;stroke-width:11;stroke-linecap:round;stroke-linejoin:miter;stroke:rgb(0%,0%,0%);stroke-opacity:1;stroke-miterlimit:10;" d="M 376.464844 529.134115 L 621.907552 529.134115 " transform="matrix(0.024,0,0,0.024,0,0)"/>
<path style="fill:none;stroke-width:11;stroke-linecap:round;stroke-linejoin:miter;stroke:rgb(0%,0%,0%);stroke-opacity:1;stroke-miterlimit:10;" d="M 396.972656 590.169271 L 603.352865 590.169271 " transform="matrix(0.024,0,0,0.024,0,0)"/>
<path style="fill:none;stroke-width:11;stroke-linecap:round;stroke-linejoin:miter;stroke:rgb(0%,0%,0%);stroke-opacity:1;stroke-miterlimit:10;" d="M 412.760417 651.367188 L 585.77474 651.367188 " transform="matrix(0.024,0,0,0.024,0,0)"/>
<path style="fill:none;stroke-width:11;stroke-linecap:round;stroke-linejoin:miter;stroke:rgb(0%,0%,0%);stroke-opacity:1;stroke-miterlimit:10;" d="M 431.152344 713.541667 L 569.661458 713.541667 " transform="matrix(0.024,0,0,0.024,0,0)"/>
<path style="fill:none;stroke-width:11;stroke-linecap:round;stroke-linejoin:miter;stroke:rgb(0%,0%,0%);stroke-opacity:1;stroke-miterlimit:10;" d="M 448.079427 774.739583 L 551.595052 774.739583 " transform="matrix(0.024,0,0,0.024,0,0)"/>
<path style="fill:none;stroke-width:11;stroke-linecap:round;stroke-linejoin:miter;stroke:rgb(0%,0%,0%);stroke-opacity:1;stroke-miterlimit:10;" d="M 465.820312 835.77474 L 534.016927 835.77474 " transform="matrix(0.024,0,0,0.024,0,0)"/>
<path style="fill:none;stroke-width:11;stroke-linecap:round;stroke-linejoin:miter;stroke:rgb(0%,0%,0%);stroke-opacity:1;stroke-miterlimit:10;" d="M 482.259115 897.623698 L 517.578125 897.623698 " transform="matrix(0.024,0,0,0.024,0,0)"/>
<path style="fill:none;stroke-width:11;stroke-linecap:round;stroke-linejoin:miter;stroke:rgb(0%,0%,0%);stroke-opacity:1;stroke-miterlimit:10;" d="M 493.326823 959.147135 L 507.324219 959.147135 " transform="matrix(0.024,0,0,0.024,0,0)"/>
</g>
</svg>